<svg xmlns="http://www.w3.org/2000/svg" viewBox="0 0 256 256" width="32" height="32">
  <rect width="256" height="256" rx="48" fill="#6366f1"/>
  <g transform="scale(0.9) translate(13, 13)">
    <path fill="#ffffff" d="M224.5,105.5l-88-48a12,12,0,0,0-11,0l-90,48A12,12,0,0,0,30,116v24a12,12,0,0,0,5.5,10.5l90,48a12,12,0,0,0,11,0l88-48A12,12,0,0,0,230,140V116A12,12,0,0,0,224.5,105.5ZM134,59l76.6,42L134,141.7,57.4,101ZM54,114.5l76,41.5v78.7L57.4,194.5A12,12,0,0,1,54,186Zm126,72L134,229.7V151l76-41.5v67.2A12,12,0,0,1,206.6,186Z"/>
  </g>
</svg>
