<svg xmlns="http://www.w3.org/2000/svg" viewBox="0 0 256 256">
  <rect width="256" height="256" rx="48" fill="#6366f1"/>
  <g transform="scale(0.82) translate(28,28)">
    <path fill="#fff" d="M222.72 105.74l-88-48a12 12 0 00-11 0l-90 48A12 12 0 0030 116v24a12 12 0 005.28 10.26l90 48a12 12 0 0011 0l88-48A12 12 0 00230 140v-24a12 12 0 00-7.28-10.26zM134 59l76.62 42L134 141.69 57.38 101zM54 114.5l76 41.47v78.72L57.38 194.5A12 12 0 0154 186zm126 72L134 229.69v-78.72l76-41.47v67.19a12 12 0 01-3.38 8.5z"/>
  </g>
</svg>
